<mxfile host="app.diagrams.net" modified="2020-09-29T16:27:46.607Z" agent="5.0 (Windows NT 10.0; Win64; x64) AppleWebKit/537.36 (KHTML, like Gecko) Chrome/85.0.4183.121 Safari/537.36" etag="mDhg1MHacws5NAWSc8VE" version="13.7.6" type="github">
  <diagram id="3O198bc90ABbvBUwSJLB" name="Page-1">
    <mxGraphModel dx="865" dy="457" grid="1" gridSize="10" guides="1" tooltips="1" connect="1" arrows="1" fold="1" page="1" pageScale="1" pageWidth="827" pageHeight="1169" math="0" shadow="0">
      <root>
        <mxCell id="0" />
        <mxCell id="1" parent="0" />
        <mxCell id="xTZB2SWyBdrTcMStizPx-2" value="Actor" style="shape=umlActor;verticalLabelPosition=bottom;verticalAlign=top;html=1;outlineConnect=0;" vertex="1" parent="1">
          <mxGeometry x="50" y="230" width="30" height="60" as="geometry" />
        </mxCell>
        <mxCell id="xTZB2SWyBdrTcMStizPx-5" value="&lt;font size=&quot;3&quot;&gt;Catalog.API&lt;/font&gt;" style="whiteSpace=wrap;html=1;aspect=fixed;" vertex="1" parent="1">
          <mxGeometry x="280" y="230" width="100" height="100" as="geometry" />
        </mxCell>
        <mxCell id="xTZB2SWyBdrTcMStizPx-6" value="Catalog DB" style="shape=cylinder3;whiteSpace=wrap;html=1;boundedLbl=1;backgroundOutline=1;size=15;" vertex="1" parent="1">
          <mxGeometry x="510" y="230" width="60" height="80" as="geometry" />
        </mxCell>
        <mxCell id="xTZB2SWyBdrTcMStizPx-9" value="&lt;font style=&quot;font-size: 14px&quot;&gt;&lt;b&gt;Get all items&lt;br&gt;CRUD for items&lt;br&gt;&lt;/b&gt;&lt;/font&gt;" style="text;html=1;strokeColor=none;fillColor=none;align=center;verticalAlign=middle;whiteSpace=wrap;rounded=0;" vertex="1" parent="1">
          <mxGeometry x="120" y="225" width="120" height="70" as="geometry" />
        </mxCell>
        <mxCell id="xTZB2SWyBdrTcMStizPx-10" value="Actor" style="shape=umlActor;verticalLabelPosition=bottom;verticalAlign=top;html=1;outlineConnect=0;" vertex="1" parent="1">
          <mxGeometry x="50" y="380" width="30" height="60" as="geometry" />
        </mxCell>
        <mxCell id="xTZB2SWyBdrTcMStizPx-13" value="&lt;font style=&quot;font-size: 14px&quot;&gt;&lt;b&gt;MakeOrder&lt;br&gt;&lt;/b&gt;&lt;/font&gt;" style="text;html=1;strokeColor=none;fillColor=none;align=center;verticalAlign=middle;whiteSpace=wrap;rounded=0;" vertex="1" parent="1">
          <mxGeometry x="130" y="370" width="120" height="70" as="geometry" />
        </mxCell>
        <mxCell id="xTZB2SWyBdrTcMStizPx-14" value="&lt;font size=&quot;3&quot;&gt;Order.API&lt;/font&gt;" style="whiteSpace=wrap;html=1;aspect=fixed;" vertex="1" parent="1">
          <mxGeometry x="280" y="380" width="80" height="80" as="geometry" />
        </mxCell>
        <mxCell id="xTZB2SWyBdrTcMStizPx-15" value="Order DB" style="shape=cylinder3;whiteSpace=wrap;html=1;boundedLbl=1;backgroundOutline=1;size=15;" vertex="1" parent="1">
          <mxGeometry x="520" y="370" width="60" height="80" as="geometry" />
        </mxCell>
      </root>
    </mxGraphModel>
  </diagram>
</mxfile>
